<?xml version="1.0" encoding="UTF-8"?>
<svg xmlns="http://www.w3.org/2000/svg" xmlns:xlink="http://www.w3.org/1999/xlink" viewBox="0 0 7680 4320">
  <defs>
    <style>
      .cls-1 {
        fill: url(#linear-gradient-2);
      }

      .cls-2 {
        fill: #fff;
      }

      .cls-3 {
        fill: url(#linear-gradient-15);
      }

      .cls-4 {
        fill: url(#linear-gradient-14);
      }

      .cls-5 {
        fill: url(#linear-gradient-6);
      }

      .cls-6 {
        fill: url(#linear-gradient-11);
      }

      .cls-7 {
        fill: url(#linear-gradient-10);
      }

      .cls-8 {
        fill: url(#linear-gradient-5);
      }

      .cls-9 {
        fill: url(#linear-gradient-7);
      }

      .cls-10 {
        fill: url(#linear-gradient-9);
      }

      .cls-11 {
        fill: url(#linear-gradient-3);
      }

      .cls-12 {
        fill: url(#linear-gradient);
      }

      .cls-13 {
        fill: url(#linear-gradient-4);
      }

      .cls-14 {
        fill: url(#linear-gradient-8);
      }

      .cls-15 {
        fill: url(#linear-gradient-12);
      }

      .cls-16 {
        fill: url(#linear-gradient-13);
      }
    </style>
    <linearGradient id="linear-gradient" x1="918.66" y1="1984.74" x2="1105" y2="1984.74" gradientUnits="userSpaceOnUse">
      <stop offset="0" stop-color="#170fb0"/>
      <stop offset="0" stop-color="#1409ad"/>
      <stop offset="0" stop-color="#1102aa"/>
      <stop offset="0" stop-color="#10a"/>
      <stop offset=".1" stop-color="#222cbb"/>
      <stop offset=".21" stop-color="#355bcc"/>
      <stop offset=".33" stop-color="#4584dc"/>
      <stop offset=".46" stop-color="#52a4e8"/>
      <stop offset=".58" stop-color="#5dbef2"/>
      <stop offset=".71" stop-color="#64d0f9"/>
      <stop offset=".85" stop-color="#68dbfd"/>
      <stop offset="1" stop-color="#6adfff"/>
    </linearGradient>
    <linearGradient id="linear-gradient-2" x1="970.21" y1="1912.42" x2="1224.74" y2="1912.42" gradientTransform="translate(-245.59 134.6) rotate(-5.12) scale(1.01 1.1)" gradientUnits="userSpaceOnUse">
      <stop offset="0" stop-color="#6adfff"/>
      <stop offset=".24" stop-color="#509ee6"/>
      <stop offset=".51" stop-color="#355bcc"/>
      <stop offset=".73" stop-color="#2129b9"/>
      <stop offset=".9" stop-color="#150bae"/>
      <stop offset="1" stop-color="#10a"/>
    </linearGradient>
    <linearGradient id="linear-gradient-3" x1="1134.82" y1="1668.12" x2="1285.3" y2="1927.53" gradientTransform="translate(-451.27 64.79) rotate(-5.12) scale(1.07 1.14)" gradientUnits="userSpaceOnUse">
      <stop offset="0" stop-color="#6adfff"/>
      <stop offset=".39" stop-color="#69ddfe"/>
      <stop offset=".53" stop-color="#66d6fb"/>
      <stop offset=".62" stop-color="#61caf7"/>
      <stop offset=".7" stop-color="#5bb9f0"/>
      <stop offset=".77" stop-color="#52a3e8"/>
      <stop offset=".83" stop-color="#4788dd"/>
      <stop offset=".88" stop-color="#3a67d1"/>
      <stop offset=".93" stop-color="#2b42c3"/>
      <stop offset=".98" stop-color="#1b19b3"/>
      <stop offset="1" stop-color="#10a"/>
    </linearGradient>
    <linearGradient id="linear-gradient-4" x1="948.42" y1="2741.81" x2="1631.16" y2="2741.81" gradientTransform="translate(839.72 -1079.17) rotate(17.93)" gradientUnits="userSpaceOnUse">
      <stop offset="0" stop-color="#170fb0"/>
      <stop offset=".04" stop-color="#2534be"/>
      <stop offset=".09" stop-color="#3761cf"/>
      <stop offset=".14" stop-color="#4788dd"/>
      <stop offset=".2" stop-color="#53a7e9"/>
      <stop offset=".25" stop-color="#5dc0f3"/>
      <stop offset=".31" stop-color="#64d1f9"/>
      <stop offset=".37" stop-color="#68dbfd"/>
      <stop offset=".45" stop-color="#6adfff"/>
      <stop offset="1" stop-color="#10a"/>
    </linearGradient>
    <linearGradient id="linear-gradient-5" x1="1167.67" y1="1545.98" x2="1656.08" y2="1545.98" gradientTransform="translate(-176.65 351.07) rotate(-5.12)" gradientUnits="userSpaceOnUse">
      <stop offset="0" stop-color="#6adfff"/>
      <stop offset=".29" stop-color="#69dcfe"/>
      <stop offset=".44" stop-color="#66d5fb"/>
      <stop offset=".55" stop-color="#60c7f6"/>
      <stop offset=".64" stop-color="#59b5ef"/>
      <stop offset=".72" stop-color="#4f9de5"/>
      <stop offset=".8" stop-color="#437fda"/>
      <stop offset=".87" stop-color="#355bcc"/>
      <stop offset=".93" stop-color="#2532bd"/>
      <stop offset=".99" stop-color="#1204ab"/>
      <stop offset="1" stop-color="#10a"/>
    </linearGradient>
    <linearGradient id="linear-gradient-6" x1="1358.06" y1="1542.83" x2="1916.75" y2="1317.72" gradientTransform="translate(-176.65 351.07) rotate(-5.12)" gradientUnits="userSpaceOnUse">
      <stop offset="0" stop-color="#1b19b3"/>
      <stop offset="0" stop-color="#1b1ab3"/>
      <stop offset="0" stop-color="#2c43c3"/>
      <stop offset="0" stop-color="#3a67d1"/>
      <stop offset="0" stop-color="#4788dd"/>
      <stop offset="0" stop-color="#52a3e8"/>
      <stop offset="0" stop-color="#5bb9f0"/>
      <stop offset="0" stop-color="#61caf7"/>
      <stop offset="0" stop-color="#66d6fb"/>
      <stop offset="0" stop-color="#69ddfe"/>
      <stop offset="0" stop-color="#6adfff"/>
      <stop offset=".13" stop-color="#68dafd"/>
      <stop offset=".26" stop-color="#63cdf8"/>
      <stop offset=".4" stop-color="#5ab8f0"/>
      <stop offset=".54" stop-color="#4e9ae4"/>
      <stop offset=".69" stop-color="#3e73d5"/>
      <stop offset=".84" stop-color="#2c44c3"/>
      <stop offset=".98" stop-color="#160dae"/>
      <stop offset="1" stop-color="#1306ac"/>
    </linearGradient>
    <linearGradient id="linear-gradient-7" x1="1753.23" y1="1512.59" x2="1506.05" y2="1380.87" gradientTransform="translate(-176.65 351.07) rotate(-5.12)" gradientUnits="userSpaceOnUse">
      <stop offset=".04" stop-color="#10a"/>
      <stop offset=".09" stop-color="#1811b0"/>
      <stop offset=".34" stop-color="#3459cc"/>
      <stop offset=".57" stop-color="#4b93e2"/>
      <stop offset=".76" stop-color="#5cbcf1"/>
      <stop offset=".91" stop-color="#66d5fb"/>
      <stop offset="1" stop-color="#6adfff"/>
    </linearGradient>
    <linearGradient id="linear-gradient-8" x1="1776.16" y1="1460.34" x2="1971.36" y2="1436.56" gradientTransform="translate(-176.65 351.07) rotate(-5.12)" gradientUnits="userSpaceOnUse">
      <stop offset="0" stop-color="#6adfff"/>
      <stop offset=".03" stop-color="#5fc5f5"/>
      <stop offset=".06" stop-color="#4f9ce5"/>
      <stop offset=".09" stop-color="#4077d7"/>
      <stop offset=".13" stop-color="#3356cb"/>
      <stop offset=".17" stop-color="#283bc0"/>
      <stop offset=".22" stop-color="#1f25b8"/>
      <stop offset=".28" stop-color="#1914b1"/>
      <stop offset=".35" stop-color="#1408ad"/>
      <stop offset=".45" stop-color="#1101aa"/>
      <stop offset=".72" stop-color="#10a"/>
    </linearGradient>
    <linearGradient id="linear-gradient-9" x1="1453.25" y1="1838.52" x2="2103.36" y2="1759.32" gradientTransform="translate(-176.65 351.07) rotate(-5.12)" gradientUnits="userSpaceOnUse">
      <stop offset="0" stop-color="#6adfff"/>
      <stop offset=".3" stop-color="#4c94e2"/>
      <stop offset=".64" stop-color="#2c44c4"/>
      <stop offset=".88" stop-color="#1813b1"/>
      <stop offset="1" stop-color="#10a"/>
    </linearGradient>
    <linearGradient id="linear-gradient-10" x1="1463.73" y1="1781.6" x2="1869.1" y2="1732.21" gradientTransform="translate(-176.65 351.07) rotate(-5.12)" gradientUnits="userSpaceOnUse">
      <stop offset="0" stop-color="#6adfff"/>
      <stop offset=".12" stop-color="#68dafd"/>
      <stop offset=".25" stop-color="#62cdf8"/>
      <stop offset=".39" stop-color="#5ab7ef"/>
      <stop offset=".54" stop-color="#4d98e4"/>
      <stop offset=".68" stop-color="#3e70d5"/>
      <stop offset=".83" stop-color="#2a40c2"/>
      <stop offset=".98" stop-color="#1408ad"/>
      <stop offset="1" stop-color="#10a"/>
    </linearGradient>
    <linearGradient id="linear-gradient-11" x1="936.42" y1="2649.57" x2="1630.96" y2="2649.57" gradientTransform="translate(839.72 -1079.17) rotate(17.93)" gradientUnits="userSpaceOnUse">
      <stop offset="0" stop-color="#170fb0"/>
      <stop offset="0" stop-color="#1a17b3"/>
      <stop offset=".07" stop-color="#2f4bc6"/>
      <stop offset=".14" stop-color="#4178d8"/>
      <stop offset=".2" stop-color="#4f9de6"/>
      <stop offset=".26" stop-color="#5bbaf1"/>
      <stop offset=".33" stop-color="#63cef8"/>
      <stop offset=".39" stop-color="#68dafd"/>
      <stop offset=".45" stop-color="#6adfff"/>
      <stop offset="1" stop-color="#10a"/>
    </linearGradient>
    <linearGradient id="linear-gradient-12" x1="1205.16" y1="2047.28" x2="1409.93" y2="2047.28" gradientTransform="translate(-176.65 351.07) rotate(-5.12)" gradientUnits="userSpaceOnUse">
      <stop offset="0" stop-color="#6adfff"/>
      <stop offset="1" stop-color="#10a"/>
    </linearGradient>
    <linearGradient id="linear-gradient-13" x1="6675.74" y1="1616.52" x2="6782.72" y2="1616.52" gradientUnits="userSpaceOnUse">
      <stop offset="0" stop-color="#10a"/>
      <stop offset="1" stop-color="#1811b1"/>
      <stop offset="1" stop-color="#1811b1"/>
      <stop offset="1" stop-color="#3559cc"/>
      <stop offset="1" stop-color="#4b93e2"/>
      <stop offset="1" stop-color="#5cbcf1"/>
      <stop offset="1" stop-color="#66d5fb"/>
      <stop offset="1" stop-color="#6adfff"/>
    </linearGradient>
    <linearGradient id="linear-gradient-14" x1="6690.72" y1="1617.26" x2="6724.56" y2="1617.26" gradientUnits="userSpaceOnUse">
      <stop offset=".04" stop-color="#10a"/>
      <stop offset="1" stop-color="#170fb0"/>
      <stop offset="1" stop-color="#1811b1"/>
      <stop offset="1" stop-color="#3459cc"/>
      <stop offset="1" stop-color="#4b93e2"/>
      <stop offset="1" stop-color="#5cbcf1"/>
      <stop offset="1" stop-color="#66d5fb"/>
      <stop offset="1" stop-color="#6adfff"/>
    </linearGradient>
    <linearGradient id="linear-gradient-15" x1="6724.73" y1="1617.26" x2="6766.62" y2="1617.26" gradientUnits="userSpaceOnUse">
      <stop offset=".04" stop-color="#10a"/>
      <stop offset="1" stop-color="#150bae"/>
      <stop offset="1" stop-color="#1711b0"/>
      <stop offset="1" stop-color="#3459cc"/>
      <stop offset="1" stop-color="#4b93e2"/>
      <stop offset="1" stop-color="#5cbcf1"/>
      <stop offset="1" stop-color="#66d5fb"/>
      <stop offset="1" stop-color="#6adfff"/>
    </linearGradient>
  </defs>
  <g id="Layer_2" data-name="Layer 2">
    <rect class="cls-2" y="-26.11" width="7680" height="4346.11"/>
  </g>
  <g id="Layer_1" data-name="Layer 1">
    <image width="7680" height="4320" transform="translate(1780.11 481.07) scale(.69)" xlink:href="D:\MEEDENLABS\Copy to Desktop\ML_SF_002.png"/>
    <g>
      <path class="cls-12" d="M1105,1905.54c-28.56-2.54-36.52,10.42-32.65,25.8-109.19-20.09-152.47,131.17-153.69,135.47,28.18-197.02,182.99-162.05,186.34-161.26Z"/>
      <path class="cls-1" d="M989.35,2180.67c-33.99-41.61-58.47-83.9-75.73-125.31,0-.03,.01-.07,.02-.11,.43-1.72,6.41-24.84,19.2-52.38,38.68,49.91,118.53,124.01,243.62,107.42,25,133.89-82.49,198.44-187.11,70.38Z"/>
      <path class="cls-11" d="M1177.17,2111.64c-131.69,17.37-215.64-59.37-256.28-111.09,23.51-49.79,68.8-113.59,142.89-98.64,2.13,8.79,7.43,18.31,14.74,26.64,58.44,66.73,88.68,130.13,98.65,183.09Z"/>
      <path class="cls-13" d="M1617.45,1815.53s-.01,.02-.01,.03c-65.28,118.36-188.33,249.26-386.23,139.87-61.26-33.87-101.42-47.67-126.16-49.87,0,0-.01,0-.05-.01-3.35-.78-158.2-35.77-186.36,161.36-33.37-75.04-38.59-147.13-33.75-205.12,38.51-59.98,114.44-134.45,232.91-67.7,181.67,102.37,411.23,135.1,499.38,21.66,.08-.06,.17-.13,.25-.2,.01,0,.01-.02,.03-.02Z"/>
      <path class="cls-8" d="M1617.35,1815.54c-160.83,135.66-489.49-121.1-502.13-131.08,85.9,62.57,132.08,78.42,180.4,46.59,61.62,47,215.01,148.28,321.73,84.49Z"/>
      <path class="cls-5" d="M1924.07,1648.21c-1.69-3.22-139.46-261.51-331.04-101.76-111.67,93.11-139.6,196.66-212.42,240.4-34.9-19.28-64.86-40.44-84.98-55.81,15.63-10.29,31.5-25.57,48.99-45.88,73.94-85.77,223.52-346.54,409.66-256.86,71.17,34.29,133.36,116.03,169.8,219.91Z"/>
      <path class="cls-9" d="M1924.13,1648.21c-97.1-99.35-209.28-38.47-209.28-38.47l.02,.18c-19.09,8.39-32.94,35.15-39.38,62.72-3.13,13.42-21.39,76.14-58.2,142.88,0,.02,.07,.01,.07,.01-71.85,42.93-164.84,11.08-236.76-28.68,72.83-43.75,100.78-147.29,212.45-240.4,191.58-159.75,329.38,98.54,331.07,101.76Z"/>
      <path class="cls-14" d="M1924.15,1648.24c-66.31-50.21-137.94-31.17-174.41-15.58-8.6-24.21-20.57-29.13-34.88-22.73l-.02-.18s112.19-60.9,209.3,38.5Z"/>
      <path class="cls-10" d="M1825.32,2218.42c-141.15,167.37-262.41,141.93-309.97,60.65,468.81-179.33,401.22-536.2,363.45-655.08,15.07,5.1,30.31,12.92,45.3,24.26,58.85,167.79,50.36,393.35-98.78,570.17Z"/>
      <path class="cls-7" d="M1515.35,2279.07c-33.8-57.76-30.38-143.7,29.56-208.67,144.28-156.39,234.04-305.38,209.11-421.93-1.28-6-2.75-11.25-4.37-15.8,28.23-12.06,77.56-26.2,129.15-8.68,37.77,118.88,105.36,475.75-363.45,655.08Z"/>
      <path class="cls-6" d="M1617.17,1815.75c-88.15,113.44-317.7,80.71-499.38-21.66-118.47-66.75-194.39,7.71-232.91,67.7,3.05-36.69,10.14-67.71,16.65-90.26,19.18-66.4,118.75-157.78,202.37-95.47,3.73,2.78,7.4,5.48,10.98,8.1,0,0,.05,.05,.18,.13,.07,.06,341.19,266.6,502.11,131.46Z"/>
      <circle class="cls-15" cx="1308.46" cy="2273.43" r="102.38"/>
    </g>
    <g>
      <path class="cls-16" d="M6778.52,1595.7c-2.69-6.37-6.55-12.09-11.46-17-4.91-4.91-10.63-8.77-17-11.46-6.6-2.79-13.6-4.2-20.82-4.2s-14.23,1.41-20.82,4.2c-6.37,2.69-12.09,6.55-17,11.46-4.91,4.91-8.77,10.63-11.46,17-2.79,6.6-4.2,13.6-4.2,20.82s1.41,14.23,4.2,20.82c2.69,6.37,6.55,12.09,11.46,17,4.91,4.91,10.63,8.77,17,11.46,6.6,2.79,13.6,4.2,20.82,4.2s14.23-1.41,20.82-4.2c6.37-2.69,12.09-6.55,17-11.46,4.91-4.91,8.77-10.63,11.46-17,2.79-6.6,4.2-13.6,4.2-20.82s-1.41-14.23-4.2-20.82Zm-49.29,67.52c-25.75,0-46.7-20.95-46.7-46.7s20.95-46.7,46.7-46.7,46.7,20.95,46.7,46.7-20.95,46.7-46.7,46.7Z"/>
      <polygon class="cls-4" points="6690.72 1604.47 6704.17 1604.47 6704.17 1636.39 6711.26 1636.39 6711.26 1604.47 6724.56 1604.47 6724.56 1598.12 6690.72 1598.12 6690.72 1604.47"/>
      <polygon class="cls-3" points="6745.67 1626.18 6734.36 1598.12 6727.5 1598.12 6724.73 1636.39 6731.67 1636.39 6733.39 1612.24 6743.31 1636.39 6748.04 1636.39 6757.96 1612.24 6759.68 1636.39 6766.62 1636.39 6763.85 1598.12 6756.99 1598.12 6745.67 1626.18"/>
    </g>
  </g>
</svg>