<?xml version="1.0" encoding="UTF-8"?>
<svg id="Layer_1" data-name="Layer 1" xmlns="http://www.w3.org/2000/svg" xmlns:xlink="http://www.w3.org/1999/xlink" viewBox="0 0 7680 4346.11">
  <defs>
    <style>
      .cls-1 {
        fill: url(#linear-gradient-2);
      }

      .cls-2 {
        fill: #fff;
      }

      .cls-3 {
        fill: url(#linear-gradient-15);
      }

      .cls-4 {
        fill: url(#linear-gradient-14);
      }

      .cls-5 {
        fill: url(#linear-gradient-6);
      }

      .cls-6 {
        fill: url(#linear-gradient-11);
      }

      .cls-7 {
        fill: url(#linear-gradient-10);
      }

      .cls-8 {
        fill: url(#linear-gradient-5);
      }

      .cls-9 {
        fill: url(#linear-gradient-7);
      }

      .cls-10 {
        fill: url(#linear-gradient-9);
      }

      .cls-11 {
        fill: url(#linear-gradient-3);
      }

      .cls-12 {
        fill: url(#linear-gradient);
      }

      .cls-13 {
        fill: url(#linear-gradient-4);
      }

      .cls-14 {
        fill: url(#linear-gradient-8);
      }

      .cls-15 {
        fill: url(#linear-gradient-12);
      }

      .cls-16 {
        fill: url(#linear-gradient-13);
      }
    </style>
    <linearGradient id="linear-gradient" x1="1910.88" y1="2679.81" x2="2546.8" y2="2679.81" gradientUnits="userSpaceOnUse">
      <stop offset="0" stop-color="#170fb0"/>
      <stop offset="0" stop-color="#1409ad"/>
      <stop offset="0" stop-color="#1102aa"/>
      <stop offset="0" stop-color="#10a"/>
      <stop offset=".1" stop-color="#222cbb"/>
      <stop offset=".21" stop-color="#355bcc"/>
      <stop offset=".33" stop-color="#4584dc"/>
      <stop offset=".46" stop-color="#52a4e8"/>
      <stop offset=".58" stop-color="#5dbef2"/>
      <stop offset=".71" stop-color="#64d0f9"/>
      <stop offset=".85" stop-color="#68dbfd"/>
      <stop offset="1" stop-color="#6adfff"/>
    </linearGradient>
    <linearGradient id="linear-gradient-2" x1="1873.41" y1="3003.05" x2="2742.06" y2="3003.05" gradientTransform="translate(-266.55 83.49) rotate(-5.12) scale(1.01 1.1)" gradientUnits="userSpaceOnUse">
      <stop offset="0" stop-color="#6adfff"/>
      <stop offset=".24" stop-color="#509ee6"/>
      <stop offset=".51" stop-color="#355bcc"/>
      <stop offset=".73" stop-color="#2129b9"/>
      <stop offset=".9" stop-color="#150bae"/>
      <stop offset="1" stop-color="#10a"/>
    </linearGradient>
    <linearGradient id="linear-gradient-3" x1="2041.99" y1="2117.9" x2="2555.53" y2="3003.18" gradientTransform="translate(-456.27 2.28) rotate(-5.12) scale(1.07 1.14)" gradientUnits="userSpaceOnUse">
      <stop offset="0" stop-color="#6adfff"/>
      <stop offset=".39" stop-color="#69ddfe"/>
      <stop offset=".53" stop-color="#66d6fb"/>
      <stop offset=".62" stop-color="#61caf7"/>
      <stop offset=".7" stop-color="#5bb9f0"/>
      <stop offset=".77" stop-color="#52a3e8"/>
      <stop offset=".83" stop-color="#4788dd"/>
      <stop offset=".88" stop-color="#3a67d1"/>
      <stop offset=".93" stop-color="#2b42c3"/>
      <stop offset=".98" stop-color="#1b19b3"/>
      <stop offset="1" stop-color="#10a"/>
    </linearGradient>
    <linearGradient id="linear-gradient-4" x1="1847.09" y1="2652.53" x2="4177.09" y2="2652.53" gradientTransform="translate(899.44 -969.8) rotate(17.93)" gradientUnits="userSpaceOnUse">
      <stop offset="0" stop-color="#170fb0"/>
      <stop offset=".04" stop-color="#2534be"/>
      <stop offset=".09" stop-color="#3761cf"/>
      <stop offset=".14" stop-color="#4788dd"/>
      <stop offset=".2" stop-color="#53a7e9"/>
      <stop offset=".25" stop-color="#5dc0f3"/>
      <stop offset=".31" stop-color="#64d1f9"/>
      <stop offset=".37" stop-color="#68dbfd"/>
      <stop offset=".45" stop-color="#6adfff"/>
      <stop offset="1" stop-color="#10a"/>
    </linearGradient>
    <linearGradient id="linear-gradient-5" x1="2651.43" y1="1924.32" x2="4318.26" y2="1924.32" gradientTransform="translate(-199.7 323.76) rotate(-5.12)" gradientUnits="userSpaceOnUse">
      <stop offset="0" stop-color="#6adfff"/>
      <stop offset=".29" stop-color="#69dcfe"/>
      <stop offset=".44" stop-color="#66d5fb"/>
      <stop offset=".55" stop-color="#60c7f6"/>
      <stop offset=".64" stop-color="#59b5ef"/>
      <stop offset=".72" stop-color="#4f9de5"/>
      <stop offset=".8" stop-color="#437fda"/>
      <stop offset=".87" stop-color="#355bcc"/>
      <stop offset=".93" stop-color="#2532bd"/>
      <stop offset=".99" stop-color="#1204ab"/>
      <stop offset="1" stop-color="#10a"/>
    </linearGradient>
    <linearGradient id="linear-gradient-6" x1="3301.19" y1="1913.6" x2="5207.85" y2="1145.34" gradientTransform="translate(-199.7 323.76) rotate(-5.12)" gradientUnits="userSpaceOnUse">
      <stop offset="0" stop-color="#1b19b3"/>
      <stop offset="0" stop-color="#1b1ab3"/>
      <stop offset="0" stop-color="#2c43c3"/>
      <stop offset="0" stop-color="#3a67d1"/>
      <stop offset="0" stop-color="#4788dd"/>
      <stop offset="0" stop-color="#52a3e8"/>
      <stop offset="0" stop-color="#5bb9f0"/>
      <stop offset="0" stop-color="#61caf7"/>
      <stop offset="0" stop-color="#66d6fb"/>
      <stop offset="0" stop-color="#69ddfe"/>
      <stop offset="0" stop-color="#6adfff"/>
      <stop offset=".13" stop-color="#68dafd"/>
      <stop offset=".26" stop-color="#63cdf8"/>
      <stop offset=".4" stop-color="#5ab8f0"/>
      <stop offset=".54" stop-color="#4e9ae4"/>
      <stop offset=".69" stop-color="#3e73d5"/>
      <stop offset=".84" stop-color="#2c44c3"/>
      <stop offset=".98" stop-color="#160dae"/>
      <stop offset="1" stop-color="#1306ac"/>
    </linearGradient>
    <linearGradient id="linear-gradient-7" x1="4649.78" y1="1810.4" x2="3806.25" y2="1360.87" gradientTransform="translate(-199.7 323.76) rotate(-5.12)" gradientUnits="userSpaceOnUse">
      <stop offset=".04" stop-color="#10a"/>
      <stop offset=".09" stop-color="#1811b0"/>
      <stop offset=".34" stop-color="#3459cc"/>
      <stop offset=".57" stop-color="#4b93e2"/>
      <stop offset=".76" stop-color="#5cbcf1"/>
      <stop offset=".91" stop-color="#66d5fb"/>
      <stop offset="1" stop-color="#6adfff"/>
    </linearGradient>
    <linearGradient id="linear-gradient-8" x1="4728.05" y1="1632.07" x2="5394.22" y2="1550.91" gradientTransform="translate(-199.7 323.76) rotate(-5.12)" gradientUnits="userSpaceOnUse">
      <stop offset="0" stop-color="#6adfff"/>
      <stop offset=".03" stop-color="#5fc5f5"/>
      <stop offset=".06" stop-color="#4f9ce5"/>
      <stop offset=".09" stop-color="#4077d7"/>
      <stop offset=".13" stop-color="#3356cb"/>
      <stop offset=".17" stop-color="#283bc0"/>
      <stop offset=".22" stop-color="#1f25b8"/>
      <stop offset=".28" stop-color="#1914b1"/>
      <stop offset=".35" stop-color="#1408ad"/>
      <stop offset=".45" stop-color="#1101aa"/>
      <stop offset=".72" stop-color="#10a"/>
    </linearGradient>
    <linearGradient id="linear-gradient-9" x1="3626.03" y1="2922.72" x2="5844.69" y2="2652.41" gradientTransform="translate(-199.7 323.76) rotate(-5.12)" gradientUnits="userSpaceOnUse">
      <stop offset="0" stop-color="#6adfff"/>
      <stop offset=".3" stop-color="#4c94e2"/>
      <stop offset=".64" stop-color="#2c44c4"/>
      <stop offset=".88" stop-color="#1813b1"/>
      <stop offset="1" stop-color="#10a"/>
    </linearGradient>
    <linearGradient id="linear-gradient-10" x1="3661.83" y1="2728.45" x2="5045.22" y2="2559.9" gradientTransform="translate(-199.7 323.76) rotate(-5.12)" gradientUnits="userSpaceOnUse">
      <stop offset="0" stop-color="#6adfff"/>
      <stop offset=".12" stop-color="#68dafd"/>
      <stop offset=".25" stop-color="#62cdf8"/>
      <stop offset=".39" stop-color="#5ab7ef"/>
      <stop offset=".54" stop-color="#4d98e4"/>
      <stop offset=".68" stop-color="#3e70d5"/>
      <stop offset=".83" stop-color="#2a40c2"/>
      <stop offset=".98" stop-color="#1408ad"/>
      <stop offset="1" stop-color="#10a"/>
    </linearGradient>
    <linearGradient id="linear-gradient-11" x1="1806.12" y1="2337.75" x2="4176.42" y2="2337.75" gradientTransform="translate(899.44 -969.8) rotate(17.93)" gradientUnits="userSpaceOnUse">
      <stop offset="0" stop-color="#170fb0"/>
      <stop offset="0" stop-color="#1a17b3"/>
      <stop offset=".07" stop-color="#2f4bc6"/>
      <stop offset=".14" stop-color="#4178d8"/>
      <stop offset=".2" stop-color="#4f9de6"/>
      <stop offset=".26" stop-color="#5bbaf1"/>
      <stop offset=".33" stop-color="#63cef8"/>
      <stop offset=".39" stop-color="#68dafd"/>
      <stop offset=".45" stop-color="#6adfff"/>
      <stop offset="1" stop-color="#10a"/>
    </linearGradient>
    <linearGradient id="linear-gradient-12" x1="2779.38" y1="3635.13" x2="3478.2" y2="3635.13" gradientTransform="translate(-199.7 323.76) rotate(-5.12)" gradientUnits="userSpaceOnUse">
      <stop offset="0" stop-color="#6adfff"/>
      <stop offset="1" stop-color="#10a"/>
    </linearGradient>
    <linearGradient id="linear-gradient-13" x1="4987.79" y1="3901.36" x2="5158.98" y2="3901.36" gradientUnits="userSpaceOnUse">
      <stop offset="0" stop-color="#10a"/>
      <stop offset="1" stop-color="#1811b1"/>
      <stop offset="1" stop-color="#1811b1"/>
      <stop offset="1" stop-color="#3559cc"/>
      <stop offset="1" stop-color="#4b93e2"/>
      <stop offset="1" stop-color="#5cbcf1"/>
      <stop offset="1" stop-color="#66d5fb"/>
      <stop offset="1" stop-color="#6adfff"/>
    </linearGradient>
    <linearGradient id="linear-gradient-14" x1="5011.76" y1="3902.54" x2="5065.91" y2="3902.54" gradientUnits="userSpaceOnUse">
      <stop offset=".04" stop-color="#10a"/>
      <stop offset="1" stop-color="#170fb0"/>
      <stop offset="1" stop-color="#1811b1"/>
      <stop offset="1" stop-color="#3459cc"/>
      <stop offset="1" stop-color="#4b93e2"/>
      <stop offset="1" stop-color="#5cbcf1"/>
      <stop offset="1" stop-color="#66d5fb"/>
      <stop offset="1" stop-color="#6adfff"/>
    </linearGradient>
    <linearGradient id="linear-gradient-15" x1="5066.19" y1="3902.54" x2="5133.21" y2="3902.54" gradientUnits="userSpaceOnUse">
      <stop offset=".04" stop-color="#10a"/>
      <stop offset="1" stop-color="#150bae"/>
      <stop offset="1" stop-color="#1711b0"/>
      <stop offset="1" stop-color="#3459cc"/>
      <stop offset="1" stop-color="#4b93e2"/>
      <stop offset="1" stop-color="#5cbcf1"/>
      <stop offset="1" stop-color="#66d5fb"/>
      <stop offset="1" stop-color="#6adfff"/>
    </linearGradient>
  </defs>
  <rect class="cls-2" width="7680" height="4346.11"/>
  <g>
    <path class="cls-12" d="M2546.8,2409.53c-97.46-8.66-124.64,35.54-111.43,88.05-372.63-68.56-520.35,447.64-524.49,462.31,96.18-672.38,624.49-553.03,635.92-550.36Z"/>
    <path class="cls-1" d="M2152.12,3348.47c-116.01-142-199.54-286.31-258.45-427.65,0-.11,.05-.24,.08-.37,1.47-5.86,21.87-84.77,65.51-178.78,132,170.33,404.51,423.2,831.41,366.61,85.32,456.93-281.52,677.21-638.55,240.18Z"/>
    <path class="cls-11" d="M2793.11,3112.9c-449.43,59.3-735.91-202.63-874.62-379.13,80.23-169.94,234.8-387.64,487.65-336.64,7.28,30.01,25.35,62.5,50.3,90.93,199.44,227.74,302.64,444.09,336.67,624.85Z"/>
    <path class="cls-13" d="M4295.66,2102.34s-.04,.05-.04,.1c-222.79,403.92-642.71,850.65-1318.1,477.34-209.08-115.59-346.13-162.68-430.55-170.19,0,0-.05,0-.17-.05-11.43-2.68-539.9-122.08-636.01,550.69-113.89-256.1-131.68-502.13-115.16-700.03,131.43-204.71,390.55-458.85,794.85-231.03,620,349.35,1403.41,461.07,1704.24,73.92,.26-.19,.57-.45,.85-.69,.05,0,.05-.05,.09-.06Z"/>
    <path class="cls-8" d="M4295.33,2102.37c-548.87,462.96-1670.51-413.27-1713.63-447.35,293.17,213.52,450.76,267.61,615.65,159,210.29,160.41,733.78,506.04,1097.98,288.35Z"/>
    <path class="cls-5" d="M5342.09,1531.34c-5.76-10.97-475.94-892.48-1129.76-347.28-381.1,317.76-476.41,671.13-724.95,820.43-119.12-65.79-221.34-138.02-290.03-190.46,53.35-35.1,107.5-87.28,167.19-156.58,252.34-292.7,762.83-1182.65,1398.08-876.6,242.87,117.01,455.12,395.99,579.47,750.5Z"/>
    <path class="cls-9" d="M5342.29,1531.32c-331.37-339.05-714.2-131.27-714.2-131.27l.05,.61c-65.15,28.64-112.42,119.94-134.38,214.04-10.69,45.81-73,259.86-198.61,487.62,0,.07,.24,.04,.24,.04-245.21,146.51-562.54,37.81-808-97.88,248.54-149.29,343.94-502.67,725.05-820.44,653.82-545.2,1124.1,336.3,1129.84,347.28Z"/>
    <path class="cls-14" d="M5342.37,1531.43c-226.3-171.36-470.74-106.39-595.2-53.19-29.36-82.63-70.18-99.41-119.02-77.59l-.05-.61s382.89-207.83,714.28,131.38Z"/>
    <path class="cls-10" d="M5005.06,3477.29c-481.69,571.2-895.55,484.38-1057.84,206.99,1599.91-612,1369.25-1829.93,1240.36-2235.62,51.42,17.4,103.45,44.08,154.59,82.78,200.85,572.63,171.87,1342.39-337.11,1945.85Z"/>
    <path class="cls-7" d="M3947.22,3684.28c-115.37-197.11-103.68-490.4,100.89-712.14,492.38-533.72,798.73-1042.19,713.64-1439.96-4.36-20.48-9.39-38.38-14.92-53.92,96.34-41.17,264.68-89.41,440.75-29.61,128.89,405.69,359.56,1623.62-1240.36,2235.62Z"/>
    <path class="cls-6" d="M4294.71,2103.08c-300.83,387.15-1084.24,275.43-1704.24-73.92-404.3-227.82-663.42,26.32-794.85,231.03,10.4-125.2,34.62-231.09,56.81-308.04,65.46-226.59,405.25-538.46,690.62-325.8,12.72,9.49,25.26,18.72,37.48,27.64,0,0,.18,.16,.6,.46,.25,.21,1164.38,909.83,1713.57,448.63Z"/>
    <circle class="cls-15" cx="3241.17" cy="3665.03" r="349.41"/>
  </g>
  <g>
    <path class="cls-16" d="M5152.25,3868.04c-4.31-10.19-10.48-19.35-18.34-27.21-7.86-7.86-17.01-14.03-27.21-18.34-10.56-4.46-21.77-6.73-33.32-6.73s-22.76,2.26-33.32,6.73c-10.19,4.31-19.35,10.48-27.21,18.34-7.86,7.86-14.03,17.01-18.34,27.21-4.46,10.56-6.73,21.77-6.73,33.32s2.26,22.76,6.73,33.32c4.31,10.19,10.48,19.35,18.34,27.21,7.86,7.86,17.01,14.03,27.21,18.34,10.56,4.46,21.77,6.73,33.32,6.73s22.76-2.26,33.32-6.73c10.19-4.31,19.35-10.48,27.21-18.34,7.86-7.86,14.03-17.01,18.34-27.21,4.46-10.56,6.73-21.77,6.73-33.32s-2.26-22.76-6.73-33.32Zm-78.87,108.04c-41.2,0-74.73-33.52-74.73-74.73s33.52-74.73,74.73-74.73,74.73,33.52,74.73,74.73-33.52,74.73-74.73,74.73Z"/>
    <polygon class="cls-4" points="5011.76 3882.08 5033.29 3882.08 5033.29 3933.15 5044.62 3933.15 5044.62 3882.08 5065.91 3882.08 5065.91 3871.92 5011.76 3871.92 5011.76 3882.08"/>
    <polygon class="cls-3" points="5099.7 3916.82 5081.59 3871.92 5070.61 3871.92 5066.19 3933.15 5077.28 3933.15 5080.04 3894.51 5095.91 3933.15 5103.48 3933.15 5119.36 3894.51 5122.11 3933.15 5133.21 3933.15 5128.79 3871.92 5117.8 3871.92 5099.7 3916.82"/>
  </g>
</svg>